<svg xmlns="http://www.w3.org/2000/svg" width="78" height="76" viewBox="0 0 78 76">
  <g id="promotion" transform="translate(0 0)">
    <path id="Path_6034" data-name="Path 6034" d="M124.249,292.5a1.6,1.6,0,0,0,.558-2.143,1.5,1.5,0,0,0-2.081-.574,1.6,1.6,0,0,0-.558,2.143A1.5,1.5,0,0,0,124.249,292.5Zm0,0" transform="translate(-103.383 -244.15)" fill="#007067"/>
    <path id="Path_6035" data-name="Path 6035" d="M14.623,78.027l7.672,13.684a6.007,6.007,0,0,0,8.325,2.3,6.374,6.374,0,0,0,2.23-8.571l-4.57-8.152,3.958-2.353a1.6,1.6,0,0,0,.558-2.143l-1.981-3.533,29.18-5.894a4.715,4.715,0,0,0,3.7-7.051l-5.063-9.03,3.236-5.046a1.609,1.609,0,0,0,.048-1.649l-3.047-5.434a1.516,1.516,0,0,0-1.411-.781l-5.861.362L45.979,24.708a4.51,4.51,0,0,0-3.9-2.352h-.058a4.5,4.5,0,0,0-3.848,2.17l-19.9,26.1L5.333,58.321a11.166,11.166,0,0,0-3.9,15,10.528,10.528,0,0,0,13.193,4.706Zm15.588,8.979a3.187,3.187,0,0,1-1.116,4.285,3,3,0,0,1-4.161-1.148L17.316,76.556l5.277-3.137,7.618,13.587ZM26.755,74.567,25.232,71.85l2.639-1.569L29.394,73ZM56.7,37.561l2.105,3.755-1.878,2.928L53.3,37.771ZM40.72,26.245a1.5,1.5,0,0,1,2.62.031l17.72,31.6a1.57,1.57,0,0,1-1.282,2.352,5.446,5.446,0,0,0-.836.146L40.2,26.948c.393-.521.444-.571.522-.7ZM38.17,29.608,55.781,61.016,29.2,66.384,21.122,51.971ZM4.068,71.753a8.012,8.012,0,0,1-1.022-3.914,7.919,7.919,0,0,1,3.81-6.8L18.73,53.979l7.617,13.585-11.874,7.06A7.508,7.508,0,0,1,4.068,71.753Zm0,0" transform="translate(0 -18.848)" fill="#007067"/>
    <path id="Path_6036" data-name="Path 6036" d="M52.325,310.357a1.5,1.5,0,0,0-2.081-.574l-2.639,1.569a1.5,1.5,0,0,1-2.081-.574,1.5,1.5,0,0,0-2.081-.574,1.6,1.6,0,0,0-.558,2.143,4.5,4.5,0,0,0,6.243,1.722l2.639-1.569a1.594,1.594,0,0,0,.558-2.143Zm0,0" transform="translate(-36.18 -261.011)" fill="#007067"/>
    <path id="Path_6037" data-name="Path 6037" d="M445.547,42.679l-8.489,4.864a1.594,1.594,0,0,0-.59,2.134,1.5,1.5,0,0,0,2.072.608l8.488-4.864a1.593,1.593,0,0,0,.59-2.134A1.5,1.5,0,0,0,445.547,42.679Zm0,0" transform="translate(-369.811 -35.817)" fill="#007067"/>
    <path id="Path_6038" data-name="Path 6038" d="M447.868,138.3l-5.886-1.624a1.519,1.519,0,0,0-1.866,1.109,1.574,1.574,0,0,0,1.078,1.921l5.887,1.624a1.519,1.519,0,0,0,1.866-1.109A1.574,1.574,0,0,0,447.868,138.3Zm0,0" transform="translate(-373.022 -115.189)" fill="#007067"/>
    <path id="Path_6039" data-name="Path 6039" d="M385.123,1.163l-1.579,6.061a1.574,1.574,0,0,0,1.077,1.922,1.52,1.52,0,0,0,1.866-1.109l1.578-6.061A1.574,1.574,0,0,0,386.989.054,1.519,1.519,0,0,0,385.123,1.163Zm0,0" transform="translate(-325.07 0)" fill="#007067"/>
  </g>
</svg>
