<svg id="teamwork" xmlns="http://www.w3.org/2000/svg" width="78" height="76" viewBox="0 0 78 76">
  <g id="Group_382" data-name="Group 382">
    <g id="Group_381" data-name="Group 381">
      <path id="Path_6040" data-name="Path 6040" d="M70.7,297.733c-.377,0-1.443-1.14-2.149-1.9-2.123-2.271-5.331-5.7-10.851-5.7-5.373,0-6.5,1.377-6.5,2.533a1.283,1.283,0,0,0,1.3,1.267,1.3,1.3,0,0,0,1.183-.741c.256-.138,1.227-.526,4.017-.526,4.371,0,6.9,2.7,8.928,4.877,1.422,1.521,2.545,2.723,4.072,2.723H87.6a1.267,1.267,0,1,0,0-2.533H70.7Z" transform="translate(-43.399 -247.066)" fill="#007067"/>
      <path id="Path_6041" data-name="Path 6041" d="M160.862,53.619c.14.251.538,1.2.538,3.914,0,4.259-2.776,6.721-5.006,8.7-1.561,1.386-2.794,2.48-2.794,3.967V86.666a1.3,1.3,0,0,0,2.6,0V70.2c0-.367,1.17-1.406,1.945-2.094C160.477,66.037,164,62.911,164,57.532c0-5.234-1.414-6.333-2.6-6.333a1.283,1.283,0,0,0-1.3,1.267A1.265,1.265,0,0,0,160.862,53.619Z" transform="translate(-130.2 -43.599)" fill="#007067"/>
      <path id="Path_6042" data-name="Path 6042" d="M0,24.067a1.283,1.283,0,0,0,1.3,1.267H7.61A6.336,6.336,0,0,1,7.8,26.6V39.266a1.3,1.3,0,0,0,2.6,0V26.6a18.633,18.633,0,0,0-1.162-4.982A23.74,23.74,0,0,1,7.8,15.2V3.8a1.3,1.3,0,0,1,2.6,0,1.3,1.3,0,0,0,2.6,0,1.3,1.3,0,0,1,2.6,0,1.3,1.3,0,0,0,2.6,0,1.3,1.3,0,0,1,2.6,0,1.3,1.3,0,0,0,2.6,0,1.3,1.3,0,0,1,2.6,0V13.933a1.3,1.3,0,0,0,2.6,0V3.8A3.856,3.856,0,0,0,24.7,0a3.941,3.941,0,0,0-2.6.97,3.968,3.968,0,0,0-5.2,0,3.968,3.968,0,0,0-5.2,0A3.941,3.941,0,0,0,9.1,0,3.856,3.856,0,0,0,5.2,3.8V7.6H1.3a1.267,1.267,0,1,0,0,2.533H5.2V15.2a25.387,25.387,0,0,0,1.555,7.169c.047.146.091.286.136.431H1.3A1.283,1.283,0,0,0,0,24.067Z" fill="#007067"/>
      <path id="Path_6043" data-name="Path 6043" d="M233.683,158.03c2.123,2.271,5.331,5.7,10.851,5.7,5.373,0,6.5-1.377,6.5-2.533a1.283,1.283,0,0,0-1.3-1.267,1.3,1.3,0,0,0-1.183.741c-.256.138-1.227.526-4.017.526-4.371,0-6.9-2.7-8.928-4.877-1.422-1.521-2.545-2.723-4.072-2.723h-16.9a1.267,1.267,0,1,0,0,2.533h16.9C231.911,156.133,232.977,157.273,233.683,158.03Z" transform="translate(-180.834 -130.8)" fill="#007067"/>
      <path id="Path_6044" data-name="Path 6044" d="M40.3,342h-13a19.964,19.964,0,0,0-5.113,1.132,25.458,25.458,0,0,1-6.587,1.4H3.9A1.267,1.267,0,1,1,3.9,342a1.267,1.267,0,1,0,0-2.533,1.267,1.267,0,1,1,0-2.534,1.267,1.267,0,1,0,0-2.533,1.267,1.267,0,1,1,0-2.533,1.267,1.267,0,1,0,0-2.534,1.267,1.267,0,1,1,0-2.533H14.3a1.267,1.267,0,1,0,0-2.533H3.9a3.856,3.856,0,0,0-3.9,3.8A3.73,3.73,0,0,0,1,330.6a3.72,3.72,0,0,0,0,5.066,3.72,3.72,0,0,0,0,5.067,3.729,3.729,0,0,0-1,2.533,3.856,3.856,0,0,0,3.9,3.8H7.8v3.8a1.3,1.3,0,0,0,2.6,0v-3.8h5.2a27.185,27.185,0,0,0,7.357-1.515l.443-.132v5.447a1.3,1.3,0,0,0,2.6,0v-6.148a6.732,6.732,0,0,1,1.3-.185h13a1.267,1.267,0,1,0,0-2.533Z" transform="translate(0 -276.134)" fill="#007067"/>
      <path id="Path_6045" data-name="Path 6045" d="M279.539,11.4a3.73,3.73,0,0,0,1-2.533,3.856,3.856,0,0,0-3.9-3.8h-3.9v-3.8a1.3,1.3,0,0,0-2.6,0v3.8h-5.2a27.186,27.186,0,0,0-7.357,1.515l-.443.132V1.267a1.3,1.3,0,0,0-2.6,0V7.415a6.733,6.733,0,0,1-1.3.185h-13a1.267,1.267,0,1,0,0,2.533h13A19.964,19.964,0,0,0,258.348,9a25.464,25.464,0,0,1,6.587-1.4h11.7a1.267,1.267,0,1,1,0,2.533,1.267,1.267,0,1,0,0,2.533,1.267,1.267,0,1,1,0,2.533,1.267,1.267,0,1,0,0,2.533,1.267,1.267,0,1,1,0,2.533,1.267,1.267,0,1,0,0,2.533,1.267,1.267,0,1,1,0,2.533h-10.4a1.267,1.267,0,1,0,0,2.533h10.4a3.856,3.856,0,0,0,3.9-3.8,3.73,3.73,0,0,0-1-2.533,3.72,3.72,0,0,0,0-5.066,3.72,3.72,0,0,0,0-5.067Z" transform="translate(-202.535)" fill="#007067"/>
      <path id="Path_6046" data-name="Path 6046" d="M293.272,247.648c-.14-.251-.538-1.2-.538-3.914,0-4.259,2.776-6.721,5.006-8.7,1.561-1.386,2.794-2.48,2.794-3.967V214.6a1.3,1.3,0,0,0-2.6,0v16.467c0,.367-1.17,1.406-1.945,2.094-2.332,2.068-5.855,5.195-5.855,10.573,0,5.234,1.414,6.333,2.6,6.333a1.283,1.283,0,0,0,1.3-1.267A1.265,1.265,0,0,0,293.272,247.648Z" transform="translate(-245.934 -181.667)" fill="#007067"/>
      <path id="Path_6047" data-name="Path 6047" d="M352.872,255.4a1.283,1.283,0,0,0-1.3-1.267h-6.31a6.336,6.336,0,0,1-.19-1.267V240.2a1.3,1.3,0,0,0-2.6,0v12.666a18.633,18.633,0,0,0,1.162,4.982,23.736,23.736,0,0,1,1.438,6.418v11.4a1.3,1.3,0,0,1-2.6,0,1.3,1.3,0,0,0-2.6,0,1.3,1.3,0,0,1-2.6,0,1.3,1.3,0,0,0-2.6,0,1.3,1.3,0,0,1-2.6,0,1.3,1.3,0,0,0-2.6,0,1.3,1.3,0,0,1-2.6,0V265.535a1.3,1.3,0,0,0-2.6,0v10.133a3.856,3.856,0,0,0,3.9,3.8,3.942,3.942,0,0,0,2.6-.97,3.968,3.968,0,0,0,5.2,0,3.969,3.969,0,0,0,5.2,0,3.941,3.941,0,0,0,2.6.97,3.856,3.856,0,0,0,3.9-3.8v-3.8h3.9a1.267,1.267,0,1,0,0-2.533h-3.9v-5.067a25.387,25.387,0,0,0-1.555-7.169c-.047-.146-.091-.286-.137-.431h5.591A1.283,1.283,0,0,0,352.872,255.4Z" transform="translate(-274.872 -203.468)" fill="#007067"/>
    </g>
  </g>
</svg>
