<svg xmlns="http://www.w3.org/2000/svg" width="78" height="76" viewBox="0 0 78 76">
  <g id="ui" transform="translate(-0.5)">
    <path id="Path_41" data-name="Path 41" d="M158.575,368h-2.6v5.067h-23.4V375.6h23.4v3.8a3.851,3.851,0,0,1-3.9,3.8h-28.6a3.934,3.934,0,0,1-3.38-1.9l-2.252,1.267a6.56,6.56,0,0,0,5.632,3.167h28.6a6.426,6.426,0,0,0,6.5-6.333Zm0,0" transform="translate(-98.275 -309.733)" fill="#007067"/>
    <path id="Path_42" data-name="Path 42" d="M232.5,432h2.6v2.533h-2.6Zm0,0" transform="translate(-194.3 -363.6)" fill="#007067"/>
    <path id="Path_43" data-name="Path 43" d="M66.1,34.2V31.667H62.134A16.69,16.69,0,0,0,46.6,16.531V12.667H44v3.864a17.308,17.308,0,0,0-2.6.4V10.133H62.2V7.6H41.4V6.333a3.851,3.851,0,0,1,3.9-3.8H73.9a3.958,3.958,0,0,1,2.579.95l1.72-1.9A6.591,6.591,0,0,0,73.9,0H45.3a6.426,6.426,0,0,0-6.5,6.333v11.4A16.527,16.527,0,0,0,28.466,31.667H24.5V34.2h3.969A16.613,16.613,0,0,0,44,49.342V53.2h2.6V49.342A16.613,16.613,0,0,0,62.131,34.2ZM44,44.333v2.475a14.53,14.53,0,0,1-5.2-1.462v-2.28a6.5,6.5,0,0,1,13,0v2.28a14.544,14.544,0,0,1-5.2,1.466V44.333ZM41.4,30.4a3.9,3.9,0,1,1,3.9,3.8A3.851,3.851,0,0,1,41.4,30.4ZM54.833,43.32c-.14.126-.29.228-.433.344v-.6A8.841,8.841,0,0,0,49.487,35.2a6.229,6.229,0,0,0,1.918-7.016,6.56,6.56,0,0,0-12.212,0A6.229,6.229,0,0,0,41.112,35.2,8.841,8.841,0,0,0,36.2,43.067v.6c-.144-.115-.294-.223-.433-.345a13.817,13.817,0,0,1-4.7-9.126H33.6V31.667H31.066A14.135,14.135,0,0,1,44,19.064v2.469h2.6V19.064a14.135,14.135,0,0,1,12.934,12.6H57V34.2h2.531a13.817,13.817,0,0,1-4.7,9.126Zm0,0" transform="translate(-20.1 0)" fill="#007067"/>
    <path id="Path_44" data-name="Path 44" d="M302.4,49.733a1.284,1.284,0,0,0,1.3-1.267v-15.2A1.284,1.284,0,0,0,302.4,32H273.8a1.284,1.284,0,0,0-1.3,1.267v15.2a1.284,1.284,0,0,0,1.3,1.267Zm-27.3-15.2h26V47.2h-26Zm0,0" transform="translate(-227.8 -26.933)" fill="#007067"/>
    <path id="Path_45" data-name="Path 45" d="M304.5,64h5.2v2.533h-5.2Zm0,0" transform="translate(-254.6 -53.867)" fill="#007067"/>
    <path id="Path_46" data-name="Path 46" d="M352.5,64h13v2.533h-13Zm0,0" transform="translate(-294.8 -53.867)" fill="#007067"/>
    <path id="Path_47" data-name="Path 47" d="M304.5,96h20.8v2.533H304.5Zm0,0" transform="translate(-254.6 -80.8)" fill="#007067"/>
    <path id="Path_48" data-name="Path 48" d="M275.364,160a4.184,4.184,0,0,0-2.73,1.013l-11.34,9.741V160h-2.6v12.667h.376l-7.4,6.359a8.97,8.97,0,0,0-8.58,8.841V190.1a3.286,3.286,0,0,1-1.881,2.965,1.257,1.257,0,0,0-.686,1.424,1.293,1.293,0,0,0,1.266.976h9.1a9,9,0,0,0,9.074-8.36l18.494-20.421a3.943,3.943,0,0,0,.666-4.317A4.136,4.136,0,0,0,275.364,160Zm-24.47,32.933h-5.945a5.726,5.726,0,0,0,.745-2.832v-2.235a6.41,6.41,0,0,1,5.98-6.313l5.7,5.553A6.442,6.442,0,0,1,250.894,192.933Zm25.618-27.924L258.636,184.75l-4.544-4.426,20.26-17.419a1.56,1.56,0,0,1,2.092.066,1.464,1.464,0,0,1,.068,2.038Zm0,0" transform="translate(-200.994 -134.666)" fill="#007067"/>
    <path id="Path_49" data-name="Path 49" d="M1.8,339H30.4a1.284,1.284,0,0,0,1.3-1.267V327.6a1.284,1.284,0,0,0-1.3-1.267H21.3V320H18.7v6.333H1.8A1.284,1.284,0,0,0,.5,327.6v10.133A1.284,1.284,0,0,0,1.8,339Zm1.3-10.133h26v7.6H3.1Zm0,0" transform="translate(0 -269.333)" fill="#007067"/>
    <path id="Path_50" data-name="Path 50" d="M32.5,392H39v2.533H32.5Zm0,0" transform="translate(-26.8 -329.933)" fill="#007067"/>
    <path id="Path_51" data-name="Path 51" d="M88.5,392h11.7v2.533H88.5Zm0,0" transform="translate(-73.7 -329.933)" fill="#007067"/>
    <path id="Path_52" data-name="Path 52" d="M1.8,44.667h13A1.284,1.284,0,0,0,16.1,43.4V33.267A1.284,1.284,0,0,0,14.8,32H1.8A1.284,1.284,0,0,0,.5,33.267V43.4A1.284,1.284,0,0,0,1.8,44.667ZM3.1,34.533H13.5v7.6H3.1Zm0,0" transform="translate(0 -26.933)" fill="#007067"/>
    <path id="Path_53" data-name="Path 53" d="M32.5,64h5.2v2.533H32.5Zm0,0" transform="translate(-26.8 -53.867)" fill="#007067"/>
  </g>
</svg>
